# xmcd
#
# Track frame offsets:
#	150
#	23350
#	40763
#	65270
#	91738
#	109183
#	141780
#	164738
#	186198
#	205758
#	238570
#
# Disc length: 3461 seconds
# Revision: 3
# Processed by: cddbd v1.5.2PL0 Copyright (c) Steve Scherf et al.
# Submitted via: dBpowerAMP V12.0
#
DISCID=890d830b
DTITLE=Scott Hamilton - Race Point [dBP-LITE-FLAC@]
DYEAR=1992
DGENRE=Jazz
TTITLE0=Groove Yard
TTITLE1=Chelsea Bridge
TTITLE2=Race Point
TTITLE3=Close Enough For Love
TTITLE4=Oh, Look At Me Now
TTITLE5=Alone Together
TTITLE6=I've Just Seen Her
TTITLE7=Limehouse Blues
TTITLE8=You're My Thrill
TTITLE9=You Say You Care
TTITLE10=The Song Is You
EXTD=
EXTT0=
EXTT1=
EXTT2=
EXTT3=
EXTT4=
EXTT5=
EXTT6=
EXTT7=
EXTT8=
EXTT9=
EXTT10=
PLAYORDER=
